# xmcd
#
# Track frame offsets: 
#        150
#        19243
#        37605
#        49759
#        68058
#        83311
#        105110
#        117210
#        129280
#        141606
#        156003
#        178789
#        191730
#        202079
#        218011
#        232395
#        247656
#        262121
#        270140
#        281779
#        294721
#        304079
#        319877
#        333191
#
# Disc length: 4608 seconds
#
# Revision: 3
# Processed by: cddbd v1.5.2PL0 Copyright (c) Steve Scherf et al.
# Submitted via: ExactAudioCopy v1.1
#
DISCID=5711fe18
DTITLE=Roy Hamilton - Have Blues Must Travel - Come Out Swingin'
DYEAR=2014
DGENRE=R&B
TTITLE0=Mood Indigo (mono)
TTITLE1=I Could Have Told You (mono)
TTITLE2=I Get the Blues When it Rains (mono)
TTITLE3=Sophisticated Lady (mono)
TTITLE4=My Story (mono)
TTITLE5=A Cottage For Sale (mono)
TTITLE6=Solitude (mono)
TTITLE7=Please Send Me Someone To Love (mono)
TTITLE8=I Let A Song Go Out Of My Heart (mono)
TTITLE9=I Got It Bad (And That Ain't Good) (mono)
TTITLE10=Stormy Weather (mono)
TTITLE11=I Surrender Dear (mono)
TTITLE12=Great Day (stereo)
TTITLE13=Ac-Cent-Tchu-Ate The Positive (stereo)
TTITLE14=Hallelujah (stereo)
TTITLE15=That Great Come And Get It Day (stereo)
TTITLE16=Some Days There Just Ain't No Fish (stereo)
TTITLE17=Sing You Sinners (stereo)
TTITLE18=Blow, Gabriel, Blow (stereo)
TTITLE19=Get Happy (stereo)
TTITLE20=Jump For Joy (stereo)
TTITLE21=I Ain't A-Gonna Leave My Love No More (stereo)
TTITLE22=Peace, Brother (stereo)
TTITLE23=The Lonesome Road (stereo)
EXTD=
EXTT0=
EXTT1=
EXTT2=
EXTT3=
EXTT4=
EXTT5=
EXTT6=
EXTT7=
EXTT8=
EXTT9=
EXTT10=
EXTT11=
EXTT12=
EXTT13=
EXTT14=
EXTT15=
EXTT16=
EXTT17=
EXTT18=
EXTT19=
EXTT20=
EXTT21=
EXTT22=
EXTT23=
PLAYORDER=
